<svg xmlns="http://www.w3.org/2000/svg" height="24" viewBox="0 0 24 24" width="24">
  <path d="m0,0l24,0l0,24l-24,0l0,-24z" fill="none" id="svg_1"/>
  <path d="m12,6l0,3l4,-4l-4,-4l0,3c-4.42,0 -8,3.58 -8,8c0,1.57 0.46,3.03 1.24,4.26l1.46,-1.46c-0.45,-0.83 -0.7,-1.79 -0.7,-2.8c0,-3.31 2.69,-6 6,-6zm6.76,1.74l-1.46,1.46c0.44,0.84 0.7,1.79 0.7,2.8c0,3.31 -2.69,6 -6,6l0,-3l-4,4l4,4l0,-3c4.42,0 8,-3.58 8,-8c0,-1.57 -0.46,-3.03 -1.24,-4.26z" fill="black" id="svg_2" transform="rotate(45.8535 12 12)"/>
</svg>